<?xml version="1.0" encoding="UTF-8"?>
<svg version="1.1" xmlns="http://www.w3.org/2000/svg" width="1024" height="1024">
<path d="M0 0 C2.8841499 1.04878178 4.3838936 2.00420011 6.0078125 4.62890625 C8.4978822 10.1810887 8.42496254 15.16037835 7 21 C3.51379492 29.15211123 -1.11048192 36.67280506 -5.875 44.125 C-7.20662907 46.23120215 -8.53732616 48.33799376 -9.8671875 50.4453125 C-10.5487793 51.52329102 -11.23037109 52.60126953 -11.93261719 53.71191406 C-15.33019153 59.11561402 -18.66377238 64.558291 -22 70 C-28.98585605 81.37645769 -36.04389016 92.70628285 -43.13232422 104.01904297 C-46.29916068 109.07356234 -49.46264795 114.13017399 -52.625 119.1875 C-53.56098022 120.68434326 -53.56098022 120.68434326 -54.51586914 122.21142578 C-58.52706992 128.63081576 -62.52014491 135.06113683 -66.5 141.5 C-74.25742683 154.05045942 -82.08870292 166.55457883 -89.91601562 179.06152344 C-96.46541406 189.52785015 -103.00850027 199.9976381 -109.5 210.5 C-115.99427777 221.00685639 -122.54042507 231.48094727 -129.09277344 241.95166016 C-132.23041563 246.96658596 -135.36507133 251.98337765 -138.5 257 C-139.74998537 259.00000915 -140.99998537 261.00000914 -142.25 263 C-142.86875 263.99 -143.4875 264.98 -144.125 266 C-149.75 275 -149.75 275 -151.62475586 277.99951172 C-152.87568669 280.00106619 -154.12650035 282.00269389 -155.37719727 284.00439453 C-158.48700269 288.98121596 -161.59878331 293.95677968 -164.71484375 298.9296875 C-171.24985065 309.36391232 -177.74595628 319.82027818 -184.1875 330.3125 C-189.2362266 338.53495352 -194.3246304 346.72875032 -199.49072266 354.87792969 C-203.53614153 361.25939705 -207.55515853 367.65705243 -211.5625 374.0625 C-212.13943604 374.98305176 -212.71637207 375.90360352 -213.31079102 376.85205078 C-217.1608886 383.01027945 -220.96151102 389.19743422 -224.74584961 395.39624023 C-225.25275078 396.22615227 -225.75965195 397.0560643 -226.28191376 397.91112518 C-227.52147389 399.94062929 -228.76083123 401.97025692 -230 404 C-228.55293073 403.9922694 -228.55293073 403.9922694 -227.07662773 403.98438263 C-203.07625091 403.8562838 -179.07585971 403.73118297 -155.0754528 403.60884857 C-143.46679855 403.54961466 -131.85814997 403.48954396 -120.24951172 403.42724609 C-95.55044624 403.29509526 -70.85138459 403.17390549 -46.15214157 403.07980347 C-43.91990912 403.07127937 -41.68767671 403.06274461 -39.45544434 403.05419922 C-37.79805249 403.04786122 -37.79805249 403.04786122 -36.10717797 403.04139519 C-28.14356148 403.01021672 -20.18000028 402.97150869 -12.21643066 402.93017578 C-2.20672854 402.87843927 7.80294902 402.83785299 17.81274927 402.81077814 C23.00814343 402.79644545 28.20339926 402.77719074 33.39871597 402.74497986 C38.1961101 402.71540976 42.99333831 402.69997998 47.79081964 402.69561577 C49.53660656 402.69156798 51.28239058 402.68239162 53.02811956 402.66760445 C55.41054618 402.64820964 57.79228782 402.64757205 60.17477417 402.65148926 C61.19627868 402.63648668 61.19627868 402.63648668 62.23841965 402.62118101 C67.98738907 402.66434099 73.45744791 403.97283009 78.0234375 407.61328125 C83.15590452 414.06594932 84.28472811 418.81908689 83.6796875 427.0234375 C81.33051785 437.31118043 74.01591949 443.4847252 66.75 450.5625 C65.63064005 451.67034524 64.51214351 452.77906356 63.39453125 453.88867188 C58.30789314 458.91848076 53.17520367 463.84904476 47.73925781 468.50366211 C44.92289339 470.9266685 42.21733912 473.46720004 39.5 476 C35.41457625 479.79055714 31.29672002 483.52544238 27.078125 487.16796875 C24.93190928 489.06002734 22.83119385 490.99744505 20.7331543 492.94262695 C16.46536311 496.89763104 12.16906109 500.7343973 7.625 504.375 C2.58583594 508.42666217 -2.10465771 512.77354616 -6.80810547 517.20263672 C-11.101263 521.22343643 -15.56246351 524.94997081 -20.15625 528.625 C-23.55635299 531.46464645 -26.77583754 534.46390643 -30 537.5 C-34.93515161 542.1466556 -39.99475886 546.51926442 -45.2890625 550.7578125 C-48.28904531 553.23906629 -51.1515203 555.84865956 -54 558.5 C-58.58754766 562.76923405 -63.3344328 566.75758961 -68.21875 570.6875 C-71.24019336 573.19971133 -74.12440078 575.82402457 -77 578.5 C-81.61001639 582.7895776 -86.37783236 586.80410897 -91.28515625 590.75390625 C-94.10673495 593.0883059 -96.80590712 595.51990598 -99.5 598 C-103.94727112 602.09351091 -108.54717463 605.92442499 -113.25 609.71875 C-116.08099578 612.06718968 -118.79383598 614.50909902 -121.5 617 C-125.94727112 621.09351091 -130.54717463 624.92442499 -135.25 628.71875 C-138.08099578 631.06718968 -140.79383598 633.50909902 -143.5 636 C-147.94727112 640.09351091 -152.54717463 643.92442499 -157.25 647.71875 C-160.08099578 650.06718968 -162.79383598 652.50909902 -165.5 655 C-169.9698512 659.11378909 -174.59044893 662.97087297 -179.31640625 666.78515625 C-181.94708557 668.95632827 -184.47942424 671.20241357 -187 673.5 C-191.29991791 677.41891252 -195.75919547 681.09170869 -200.28125 684.75 C-202.92147729 686.93501569 -205.4672972 689.19171391 -208 691.5 C-212.29991791 695.41891252 -216.75919547 699.09170869 -221.28125 702.75 C-223.92147729 704.93501569 -226.4672972 707.19171391 -229 709.5 C-232.31989486 712.52282421 -235.69764112 715.42512161 -239.1875 718.25 C-245.62711993 723.46518515 -251.85455403 728.91331752 -258.10351562 734.35351562 C-262.79784521 738.42902525 -267.52898741 742.46183847 -272.25292969 746.50292969 C-274.03835624 748.03286759 -275.82036145 749.56670801 -277.6015625 751.1015625 C-282.93550064 755.69377135 -288.28042213 760.25644957 -293.75 764.6875 C-298.13151795 768.24267904 -302.31710681 771.96769537 -306.48828125 775.765625 C-309.00151232 778.00134533 -311.57311479 780.13377682 -314.1875 782.25 C-320.62548906 787.46386438 -326.85163566 792.91041253 -333.09912109 798.34912109 C-343.18771829 807.11088506 -353.39429632 815.73517285 -363.60449219 824.35449219 C-365.21584484 825.71508114 -366.82680129 827.07613696 -368.4375 828.4375 C-368.96980225 828.88730225 -369.50210449 829.33710449 -370.05053711 829.80053711 C-373.4920141 832.71263563 -376.91662349 835.64363787 -380.33398438 838.58398438 C-384.99181926 842.59165256 -389.66303636 846.56841613 -394.4375 850.4375 C-399.54307465 854.58060991 -404.49800053 858.8823045 -409.45288086 863.20288086 C-413.08737851 866.36465838 -416.75520843 869.46850206 -420.5 872.5 C-425.53348541 876.57757127 -430.42333309 880.80505915 -435.30810547 885.05810547 C-440.95955911 889.97608782 -446.66879555 894.82199034 -452.3984375 899.6484375 C-454.03928736 901.0331547 -455.67638805 902.42218891 -457.3125 903.8125 C-462.31946389 908.06514124 -467.33897129 912.29447886 -472.4375 916.4375 C-477.30129025 920.39508188 -482.05881231 924.46542446 -486.80834961 928.55834961 C-491.1980035 932.33334391 -495.66114771 936.00728461 -500.15625 939.65625 C-503.47686594 942.39302138 -506.74043709 945.19106385 -510 948 C-515.01056016 952.31711326 -520.07592456 956.55129928 -525.21875 960.7109375 C-527.24608348 962.37950129 -529.23977237 964.06509565 -531.21875 965.7890625 C-548.78122467 981.07129793 -548.78122467 981.07129793 -560.2890625 980.46484375 C-564.20527908 979.79333111 -566.08409569 978.68570134 -569 976 C-571.88027798 971.67958302 -571.5543908 968.06975798 -571 963 C-567.15410535 947.20436126 -555.23140993 931.96988943 -546.87866211 918.30004883 C-541.30690785 909.17874055 -535.82064488 900.00960744 -530.375 890.8125 C-528.76845059 888.10012919 -527.16170183 885.38787663 -525.5546875 882.67578125 C-525.1654863 882.0189032 -524.7762851 881.36202515 -524.37528992 880.6852417 C-520.17888862 873.60735836 -515.93929979 866.5555838 -511.69824219 859.50439453 C-507.04984425 851.76822079 -502.44254385 844.00828817 -497.84277344 836.24316406 C-491.11414179 824.88488851 -484.33089966 813.56376213 -477.45855713 802.2918396 C-471.32500061 792.22803775 -465.29600736 782.10471602 -459.29400635 771.96200562 C-453.71694455 762.53987913 -448.07843468 753.15862 -442.375 743.8125 C-436.28448541 733.83129457 -430.32727714 723.77951339 -424.43795776 713.67843628 C-419.19378184 704.68831269 -413.85729369 695.76030359 -408.4375 686.875 C-400.89534227 674.50777259 -393.48781358 662.06415051 -386.12158203 649.59130859 C-374.20689808 629.41928081 -362.20973545 609.30222035 -350.01220703 589.29980469 C-347.3340553 584.9079218 -344.65982923 580.51365419 -341.9855957 576.11938477 C-340.78269863 574.1430727 -339.57943596 572.16698309 -338.37573242 570.19116211 C-337.84181885 569.31468018 -337.30790527 568.43819824 -336.7578125 567.53515625 C-336.2952002 566.775979 -335.83258789 566.01680176 -335.35595703 565.23461914 C-333.89564773 562.82802731 -332.44758618 560.4142616 -331 558 C-360.28764407 557.93259938 -389.57251691 558.01940783 -418.859375 558.21875 C-419.67112788 558.22426408 -420.48288077 558.22977816 -421.31923223 558.23545933 C-428.90114541 558.28705586 -436.48305355 558.33937275 -444.06495762 558.39229202 C-475.49669012 558.61121974 -506.92866747 558.79439852 -538.36064911 558.97348022 C-541.36899688 558.99063203 -544.37734341 559.00797704 -547.38568878 559.02554321 C-562.93771123 559.11632156 -578.48961923 559.19407653 -594.04187012 559.23217773 C-598.02590154 559.24241002 -602.00980099 559.25971311 -605.99377441 559.28344727 C-610.53958698 559.31028329 -615.08520411 559.32313935 -619.63109398 559.32407379 C-621.24081273 559.32671768 -622.85053322 559.33433691 -624.46019936 559.3476181 C-639.28681979 559.46439793 -639.28681979 559.46439793 -646 556 C-650.16728941 551.83271059 -651.80251186 548.00779607 -652.375 542.1875 C-652.0807361 533.91713563 -647.22454306 528.69704354 -641.47265625 523.20703125 C-638.34367739 520.41418282 -635.10404263 517.80450994 -631.796875 515.2265625 C-628.47945386 512.58559874 -625.27066718 509.83429398 -622.0625 507.0625 C-617.93989851 503.50468386 -613.79556789 499.98926925 -609.5625 496.5625 C-605.12760683 492.96363971 -600.80432214 489.25267936 -596.5 485.5 C-591.34144505 481.00256649 -586.11843114 476.61004716 -580.80078125 472.30078125 C-577.53670217 469.61941084 -574.3274928 466.87937137 -571.125 464.125 C-570.53541504 463.61791504 -569.94583008 463.11083008 -569.33837891 462.58837891 C-568.74847168 462.08097168 -568.15856445 461.57356445 -567.55078125 461.05078125 C-560.31183876 454.82477633 -553.04134091 448.6391376 -545.625 442.625 C-541.17183739 439.0027482 -536.8265049 435.27132432 -532.5 431.5 C-527.31789751 426.98286905 -522.07518473 422.56390715 -516.734375 418.234375 C-513.66979421 415.7301747 -510.6433778 413.18452702 -507.625 410.625 C-506.81095703 409.93470703 -506.81095703 409.93470703 -505.98046875 409.23046875 C-504.31972826 407.82099868 -502.65972338 406.41066758 -501 405 C-493.98765442 399.0399173 -486.95039195 393.12241205 -479.8125 387.3125 C-476.68200334 384.73853608 -473.58827539 382.12430914 -470.5 379.5 C-465.65179875 375.38016701 -460.75154155 371.33204036 -455.81640625 367.31640625 C-452.66214808 364.72212734 -449.5479702 362.08393735 -446.4375 359.4375 C-441.8835757 355.56453634 -437.26504947 351.79377305 -432.578125 348.08203125 C-429.59032309 345.66915486 -426.66959265 343.18186277 -423.75 340.6875 C-418.7681533 336.43857931 -413.68123135 332.35543185 -408.51269531 328.33666992 C-403.7732574 324.63894537 -399.12855657 320.83529766 -394.5 317 C-389.30560076 312.69583585 -384.07558739 308.45329379 -378.75 304.3125 C-373.68396565 300.37225106 -368.7625448 296.2952661 -363.88916016 292.11987305 C-360.04849229 288.8450334 -356.11584732 285.71429208 -352.125 282.625 C-346.3766751 278.16737765 -340.86455391 273.48259594 -335.390625 268.69360352 C-330.99608121 264.85123278 -326.53422646 261.11090538 -322 257.43359375 C-318.19493503 254.34693298 -314.40845765 251.23808773 -310.625 248.125 C-309.89474609 247.52413574 -309.16449219 246.92327148 -308.41210938 246.30419922 C-303.41750098 242.18687177 -298.46255066 238.02590119 -293.53173828 233.83251953 C-289.33671818 230.26971596 -285.08085722 226.78674425 -280.8125 223.3125 C-277.68200334 220.73853608 -274.58827539 218.12430914 -271.5 215.5 C-266.65040619 211.37898366 -261.74839194 207.33008646 -256.8125 203.3125 C-253.68200334 200.73853608 -250.58827539 198.12430914 -247.5 195.5 C-242.65040619 191.37898366 -237.74839194 187.33008646 -232.8125 183.3125 C-229.68200334 180.73853608 -226.58827539 178.12430914 -223.5 175.5 C-218.65040619 171.37898366 -213.74839194 167.33008646 -208.8125 163.3125 C-205.68200334 160.73853608 -202.58827539 158.12430914 -199.5 155.5 C-194.65179875 151.38016701 -189.75154155 147.33204036 -184.81640625 143.31640625 C-181.66214808 140.72212734 -178.5479702 138.08393735 -175.4375 135.4375 C-170.8835757 131.56453634 -166.26504947 127.79377305 -161.578125 124.08203125 C-158.59032832 121.66915908 -155.66943803 119.18203921 -152.75 116.6875 C-148.2936082 112.88255834 -143.75828313 109.21201588 -139.125 105.625 C-133.34953231 101.14788073 -127.81793355 96.43579609 -122.3203125 91.62329102 C-118.21784844 88.03737419 -114.04581313 84.5762534 -109.765625 81.203125 C-106.09953821 78.28268298 -102.48877074 75.29728016 -98.875 72.3125 C-91.278115 66.04282711 -83.64441725 59.82020949 -75.99267578 53.61767578 C-73.97047699 51.9760329 -71.95160162 50.33038484 -69.93359375 48.68359375 C-63.07497746 43.08996721 -56.18857764 37.53943954 -49.21386719 32.09106445 C-45.61740261 29.27973638 -42.04920033 26.43646181 -38.49609375 23.57055664 C-32.55095293 18.77891588 -26.54342204 14.08544991 -20.4375 9.5 C-19.78281738 9.00765869 -19.12813477 8.51531738 -18.45361328 8.00805664 C-6.59843178 -0.83980041 -6.59843178 -0.83980041 0 0 Z " fill="#FEC927" transform="translate(791,25)"/>
<path d="M0 0 C6.56321158 1.09798088 10.79701489 3.17898741 14.88671875 8.5390625 C18.35070344 13.79750484 18.2059139 18.29483882 17.7578125 24.37109375 C15.40864285 34.65883668 8.09404449 40.83238145 0.828125 47.91015625 C-0.29123495 49.01800149 -1.40973149 50.12671981 -2.52734375 51.23632812 C-7.61398186 56.26613701 -12.74667133 61.19670101 -18.18261719 65.85131836 C-20.99898161 68.27432475 -23.70453588 70.81485629 -26.421875 73.34765625 C-30.50729875 77.13821339 -34.62515498 80.87309863 -38.84375 84.515625 C-40.98996572 86.40768359 -43.09068115 88.3451013 -45.1887207 90.2902832 C-49.45651189 94.24528729 -53.75281391 98.08205355 -58.296875 101.72265625 C-63.33603906 105.77431842 -68.02653271 110.12120241 -72.72998047 114.55029297 C-77.023138 118.57109268 -81.48433851 122.29762706 -86.078125 125.97265625 C-89.47822799 128.8123027 -92.69771254 131.81156268 -95.921875 134.84765625 C-100.85702661 139.49431185 -105.91663386 143.86692067 -111.2109375 148.10546875 C-114.21092031 150.58672254 -117.0733953 153.19631581 -119.921875 155.84765625 C-124.50942266 160.1168903 -129.2563078 164.10524586 -134.140625 168.03515625 C-137.16206836 170.54736758 -140.04627578 173.17168082 -142.921875 175.84765625 C-147.53189139 180.13723385 -152.29970736 184.15176522 -157.20703125 188.1015625 C-160.02860995 190.43596215 -162.72778212 192.86756223 -165.421875 195.34765625 C-169.86914612 199.44116716 -174.46904963 203.27208124 -179.171875 207.06640625 C-182.00287078 209.41484593 -184.71571098 211.85675527 -187.421875 214.34765625 C-191.86914612 218.44116716 -196.46904963 222.27208124 -201.171875 226.06640625 C-204.00287078 228.41484593 -206.71571098 230.85675527 -209.421875 233.34765625 C-213.86914612 237.44116716 -218.46904963 241.27208124 -223.171875 245.06640625 C-226.00287078 247.41484593 -228.71571098 249.85675527 -231.421875 252.34765625 C-235.8917262 256.46144534 -240.51232393 260.31852922 -245.23828125 264.1328125 C-247.86896057 266.30398452 -250.40129924 268.55006982 -252.921875 270.84765625 C-257.22179291 274.76656877 -261.68107047 278.43936494 -266.203125 282.09765625 C-268.84335229 284.28267194 -271.3891722 286.53937016 -273.921875 288.84765625 C-278.22179291 292.76656877 -282.68107047 296.43936494 -287.203125 300.09765625 C-289.84335229 302.28267194 -292.3891722 304.53937016 -294.921875 306.84765625 C-298.24176986 309.87048046 -301.61951612 312.77277786 -305.109375 315.59765625 C-311.54899493 320.8128414 -317.77642903 326.26097377 -324.02539062 331.70117188 C-328.71972021 335.7766815 -333.45086241 339.80949472 -338.17480469 343.85058594 C-339.96023124 345.38052384 -341.74223645 346.91436426 -343.5234375 348.44921875 C-348.85737564 353.0414276 -354.20229713 357.60410582 -359.671875 362.03515625 C-364.05339295 365.59033529 -368.23898181 369.31535162 -372.41015625 373.11328125 C-374.92338732 375.34900158 -377.49498979 377.48143307 -380.109375 379.59765625 C-386.54736406 384.81152063 -392.77351066 390.25806878 -399.02099609 395.69677734 C-409.10959329 404.45854131 -419.31617132 413.0828291 -429.52636719 421.70214844 C-431.13771984 423.06273739 -432.74867629 424.42379321 -434.359375 425.78515625 C-434.89167725 426.2349585 -435.42397949 426.68476074 -435.97241211 427.14819336 C-439.4138891 430.06029188 -442.83849849 432.99129412 -446.25585938 435.93164062 C-450.91369426 439.93930881 -455.58491136 443.91607238 -460.359375 447.78515625 C-465.46494965 451.92826616 -470.41987553 456.22996075 -475.37475586 460.55053711 C-479.00925351 463.71231463 -482.67708343 466.81615831 -486.421875 469.84765625 C-491.45536041 473.92522752 -496.34520809 478.1527154 -501.22998047 482.40576172 C-506.88143411 487.32374407 -512.59067055 492.16964659 -518.3203125 496.99609375 C-519.96116236 498.38081095 -521.59826305 499.76984516 -523.234375 501.16015625 C-528.24133889 505.41279749 -533.26084629 509.64213511 -538.359375 513.78515625 C-543.22316525 517.74273813 -547.98068731 521.81308071 -552.73022461 525.90600586 C-557.1198785 529.68100016 -561.58302271 533.35494086 -566.078125 537.00390625 C-569.39874094 539.74067763 -572.66231209 542.5387201 -575.921875 545.34765625 C-580.93243516 549.66476951 -585.99779956 553.89895553 -591.140625 558.05859375 C-593.16795848 559.72715754 -595.16164737 561.4127519 -597.140625 563.13671875 C-614.70309967 578.41895418 -614.70309967 578.41895418 -626.2109375 577.8125 C-630.12715408 577.14098736 -632.00597069 576.03335759 -634.921875 573.34765625 C-637.0738187 570.1197407 -637.12273943 569.06364816 -636.921875 565.34765625 C-635.808125 565.01765625 -634.694375 564.68765625 -633.546875 564.34765625 C-623.64668908 560.59600685 -616.0090908 551.78589376 -608.36816406 544.68505859 C-604.59355586 541.1946292 -600.74862213 537.78065448 -596.921875 534.34765625 C-595.25494853 532.84794497 -593.58828351 531.34794304 -591.921875 529.84765625 C-581.921875 520.84765625 -581.921875 520.84765625 -579.4296875 518.60546875 C-577.73594606 517.08057381 -576.04326331 515.55450223 -574.3515625 514.02734375 C-570.58450385 510.62892693 -566.81271914 507.23949015 -562.984375 503.91015625 C-559.75627988 501.099431 -556.58449057 498.23185725 -553.421875 495.34765625 C-549.63524502 491.89437472 -545.8171118 488.48666574 -541.94921875 485.125 C-539.58698327 483.05406138 -537.25391647 480.95252777 -534.921875 478.84765625 C-531.30511155 475.58374777 -527.65797892 472.35974676 -523.984375 469.16015625 C-521.61223071 467.07554461 -519.26631435 464.96336981 -516.921875 462.84765625 C-513.94124779 460.15782194 -510.94942267 457.48455261 -507.921875 454.84765625 C-503.20486216 450.73684586 -498.56548611 446.5409778 -493.921875 442.34765625 C-488.64201924 437.5797865 -483.34895694 432.83253407 -477.984375 428.16015625 C-475.61223071 426.07554461 -473.26631435 423.96336981 -470.921875 421.84765625 C-467.30511155 418.58374777 -463.65797892 415.35974676 -459.984375 412.16015625 C-456.7467417 409.31496335 -453.5550121 406.41911789 -450.35546875 403.53125 C-448.24676354 401.6391694 -446.12267699 399.76859867 -443.984375 397.91015625 C-440.75627988 395.099431 -437.58449057 392.23185725 -434.421875 389.34765625 C-430.63524502 385.89437472 -426.8171118 382.48666574 -422.94921875 379.125 C-420.58698327 377.05406138 -418.25391647 374.95252777 -415.921875 372.84765625 C-412.94124779 370.15782194 -409.94942267 367.48455261 -406.921875 364.84765625 C-402.20486216 360.73684586 -397.56548611 356.5409778 -392.921875 352.34765625 C-387.64201924 347.5797865 -382.34895694 342.83253407 -376.984375 338.16015625 C-373.7467417 335.31496335 -370.5550121 332.41911789 -367.35546875 329.53125 C-365.24676354 327.6391694 -363.12267699 325.76859867 -360.984375 323.91015625 C-356.78745419 320.25586763 -352.6853474 316.50020652 -348.57421875 312.75 C-346.39726504 310.77823781 -344.20348826 308.83400288 -341.984375 306.91015625 C-338.03520133 303.47997049 -334.19165195 299.93762107 -330.34399414 296.39477539 C-326.95724881 293.28166326 -323.52281251 290.23513543 -320.046875 287.22265625 C-317.30364082 284.8021555 -314.61302932 282.32564983 -311.921875 279.84765625 C-308.62158577 276.80877607 -305.31238217 273.7860958 -301.921875 270.84765625 C-298.04136575 267.48240134 -294.26165221 264.01050009 -290.48217773 260.53295898 C-287.33438791 257.63797989 -284.16966548 254.76396935 -280.984375 251.91015625 C-276.52900696 247.91248252 -272.13103981 243.8556474 -267.73852539 239.78930664 C-263.69737616 236.05238743 -259.61476904 232.36466519 -255.515625 228.69140625 C-252.46295848 225.93297265 -249.44103205 223.14265315 -246.421875 220.34765625 C-241.8214596 216.08880302 -237.1845385 211.87523783 -232.515625 207.69140625 C-229.46295848 204.93297265 -226.44103205 202.14265315 -223.421875 199.34765625 C-219.61203359 195.82068009 -215.78850015 192.31255411 -211.921875 188.84765625 C-206.97322591 184.41148862 -202.09352728 179.90331791 -197.21484375 175.390625 C-192.62616771 171.14694193 -188.01555897 166.92725084 -183.40576172 162.70654297 C-180.91023093 160.42123129 -178.41612973 158.13436045 -175.921875 155.84765625 C-174.92188175 154.93098221 -173.92188176 154.01431555 -172.921875 153.09765625 C-172.426875 152.64390625 -171.931875 152.19015625 -171.421875 151.72265625 C-106.921875 92.59765625 -106.921875 92.59765625 -105.42211914 91.22290039 C-104.42127832 90.3054494 -103.42046455 89.38796889 -102.41967773 88.47045898 C-99.93276239 86.19055074 -97.44539185 83.91114332 -94.95703125 81.6328125 C-89.76890453 76.88158066 -84.58913939 72.12157551 -79.421875 67.34765625 C-73.76298532 62.11953546 -68.08804668 56.90921536 -62.40576172 51.70654297 C-59.91023093 49.42123129 -57.41612973 47.13436045 -54.921875 44.84765625 C-53.92188175 43.93098221 -52.92188176 43.01431555 -51.921875 42.09765625 C-51.179375 41.41703125 -51.179375 41.41703125 -50.421875 40.72265625 C-45.921875 36.59765625 -45.921875 36.59765625 -44.42211914 35.22290039 C-43.42127832 34.3054494 -42.42046455 33.38796889 -41.41967773 32.47045898 C-38.93276239 30.19055074 -36.44539185 27.91114332 -33.95703125 25.6328125 C-32.96613219 24.72527531 -31.97524679 23.81772322 -30.984375 22.91015625 C-30.49630371 22.46333496 -30.00823242 22.01651367 -29.50537109 21.55615234 C-26.82528948 19.10036 -24.15265481 16.63689446 -21.48828125 14.1640625 C-20.91392334 13.63159912 -20.33956543 13.09913574 -19.74780273 12.55053711 C-18.6510502 11.53312479 -17.55542301 10.51449739 -16.46118164 9.49438477 C-14.95812852 8.10059232 -13.44370503 6.72090671 -11.921875 5.34765625 C-11.40061035 4.87102539 -10.8793457 4.39439453 -10.34228516 3.90332031 C-6.89317593 0.86309829 -4.72848192 -0.351929 0 0 Z " fill="#FEB804" transform="translate(856.921875,427.65234375)"/>
<path d="M0 0 C2.4375 1.5 2.4375 1.5 4 4 C4.81748927 10.23335571 3.57482404 13.80844519 0 19 C-2.11280226 21.57461131 -4.37712627 23.97759484 -6.6875 26.375 C-7.61961304 27.35835327 -7.61961304 27.35835327 -8.57055664 28.36157227 C-12.58306679 32.57806426 -16.65560665 36.73057646 -20.83984375 40.77734375 C-22.71113386 42.70277607 -24.45804802 44.67117466 -26.20887756 46.70469666 C-29.60886067 50.60019469 -33.15675364 54.2987363 -36.81811523 57.94750977 C-37.45977631 58.59092316 -38.10143738 59.23433655 -38.76254272 59.89724731 C-40.85873935 61.99780158 -42.95852102 64.09472776 -45.05859375 66.19140625 C-46.53172645 67.66521374 -48.00471077 69.13916954 -49.47755432 70.61326599 C-52.55478491 73.69196531 -55.63380244 76.76886311 -58.71411133 79.84448242 C-62.64568672 83.77036106 -66.57275494 87.7007127 -70.49848843 91.63243198 C-73.53627741 94.67384887 -76.5764619 97.71286226 -79.61735725 100.75117302 C-81.06564618 102.19879885 -82.51320368 103.64715685 -83.95998955 105.09628487 C-85.98840099 107.12725961 -88.02003146 109.15496134 -90.05249023 111.18188477 C-90.63923019 111.77064896 -91.22597015 112.35941315 -91.83049011 112.96601868 C-95.49356215 116.61079692 -99.28424929 120.05771387 -103.20280552 123.42654324 C-105.84144651 125.73669251 -108.28540384 128.19157422 -110.75 130.6875 C-111.25241211 131.19369873 -111.75482422 131.69989746 -112.27246094 132.22143555 C-113.85082712 133.8118185 -115.42585009 135.40544445 -117 137 C-128.94247568 149.09728555 -128.94247568 149.09728555 -135.296875 154.51953125 C-137.83348025 156.72451609 -140.15170213 159.09511664 -142.5 161.5 C-146.18710694 165.2430589 -149.97523357 168.78256114 -153.97265625 172.19140625 C-157.23569483 175.10236359 -160.26300441 178.24308561 -163.3125 181.375 C-165.39981909 183.41377679 -167.50235324 185.31572074 -169.71289062 187.21289062 C-173.73991972 190.72430261 -177.53008699 194.41669864 -181.28125 198.21875 C-181.93903442 198.88032104 -182.59681885 199.54189209 -183.27453613 200.22351074 C-185.35217274 202.31322735 -187.42650627 204.40617315 -189.5 206.5 C-192.2365815 209.263417 -194.97662263 212.02333722 -197.71875 214.78125 C-198.63630066 215.71124817 -198.63630066 215.71124817 -199.5723877 216.66003418 C-202.59136036 219.69578915 -205.65954404 222.61011531 -208.90429688 225.40429688 C-213.42359529 229.30954389 -217.61362049 233.50556223 -221.8125 237.75 C-222.62565674 238.56694336 -223.43881348 239.38388672 -224.27661133 240.22558594 C-226.85353297 242.81462671 -229.42717625 245.40688737 -232 248 C-235.39287153 251.41962719 -238.78914657 254.83582149 -242.1875 258.25 C-242.95231689 259.02311523 -243.71713379 259.79623047 -244.50512695 260.59277344 C-248.62994822 264.73614848 -252.84782192 268.68907426 -257.27856445 272.50341797 C-259.27162462 274.23614507 -261.15145687 276.05182096 -263 277.9375 C-263.66 278.60523438 -264.32 279.27296875 -265 279.9609375 C-265.66 280.63382812 -266.32 281.30671875 -267 282 C-271.59002151 286.67967036 -276.2512494 291.16275827 -281.21875 295.44140625 C-283.41700048 297.36487542 -285.46655152 299.40398387 -287.5 301.5 C-290.85464639 304.89478746 -294.29774112 308.09587576 -297.921875 311.19921875 C-300.22103545 313.19153636 -302.44970854 315.25156625 -304.6875 317.3125 C-316.50053775 327.92606007 -327.80208981 337.54115655 -344.4453125 337.26953125 C-351.76364639 336.49741345 -356.06819008 332.34276303 -360.65234375 326.90234375 C-364.14650193 321.97001032 -363.70837568 315.76097365 -363 310 C-358.96593163 299.34363354 -346.51412725 289.94949484 -338.01171875 282.73046875 C-335.51716397 280.58466726 -333.10781018 278.35414323 -330.6875 276.125 C-327.06476095 272.81663086 -323.38307109 269.63987642 -319.5625 266.5625 C-315.56773566 263.34054925 -311.75468333 259.99322017 -308 256.5 C-303.4661005 252.28601245 -298.78759316 248.3177475 -293.96875 244.43359375 C-290.48667906 241.57921191 -287.08364868 238.64312588 -283.6875 235.6875 C-282.73701782 234.86064697 -282.73701782 234.86064697 -281.76733398 234.01708984 C-280.48134745 232.89806167 -279.19545892 231.77892086 -277.90966797 230.65966797 C-269.97887359 223.76711617 -261.99197555 216.96122354 -253.8359375 210.3359375 C-249.34735376 206.63872941 -244.95085124 202.83565815 -240.54296875 199.04296875 C-235.59441284 194.78648075 -230.6052146 190.57832994 -225.61767578 186.36767578 C-223.97091021 184.97540583 -222.32689933 183.57994527 -220.68359375 182.18359375 C-215.69973752 177.95146367 -210.70440728 173.74262602 -205.625 169.625 C-199.91841329 164.97856293 -194.3733868 160.15609974 -188.82421875 155.32421875 C-185.23232055 152.19707968 -181.61975649 149.09481234 -178 146 C-172.5187908 141.31099379 -167.06261447 136.59391017 -161.61645508 131.86425781 C-157.32394247 128.13920722 -153.0101322 124.44002309 -148.6875 120.75 C-144.67652499 117.32559051 -140.71344895 113.86273272 -136.8125 110.3125 C-133.47772886 107.28287132 -130.06712361 104.39391908 -126.5625 101.5625 C-121.788597 97.70174863 -117.26611572 93.62562925 -112.75 89.46875 C-109.18815771 86.27118704 -105.47434167 83.28611657 -101.75 80.28125 C-97.96094593 77.13805742 -94.36730648 73.79841405 -90.74609375 70.46484375 C-88.08124834 68.07292703 -85.35168175 65.80745116 -82.5625 63.5625 C-78.56776014 60.34056899 -74.75445651 56.99344505 -71 53.5 C-66.38995664 49.21044887 -61.62217044 45.19589328 -56.71484375 41.24609375 C-53.89326505 38.9116941 -51.19409288 36.48009402 -48.5 34 C-44.02799675 29.88423029 -39.40606329 26.02460194 -34.67578125 22.2109375 C-32.08151565 20.06735453 -29.60022402 17.84178545 -27.125 15.5625 C-23.22407882 12.00651558 -19.18268734 8.71349992 -15 5.5 C-14.43555176 5.06631104 -13.87110352 4.63262207 -13.28955078 4.18579102 C-8.53367866 0.57286469 -6.09528141 -0.52545529 0 0 Z " fill="#FFE466" transform="translate(601,193)"/>
<path d="M0 0 C5.71875 0.7890625 5.71875 0.7890625 8.25 2.6875 C11.95689606 7.58589837 12.47546416 12.16744906 11.65795898 18.11230469 C9.52051525 27.49326367 3.24832452 36.11159499 -1.875 44.125 C-3.20662907 46.23120215 -4.53732616 48.33799376 -5.8671875 50.4453125 C-6.8895752 52.06228027 -6.8895752 52.06228027 -7.93261719 53.71191406 C-11.33019153 59.11561402 -14.66377238 64.558291 -18 70 C-24.98585605 81.37645769 -32.04389016 92.70628285 -39.13232422 104.01904297 C-42.29916068 109.07356234 -45.46264795 114.13017399 -48.625 119.1875 C-49.24898682 120.18539551 -49.87297363 121.18329102 -50.51586914 122.21142578 C-54.52706992 128.63081576 -58.52014491 135.06113683 -62.5 141.5 C-70.25742683 154.05045942 -78.08870292 166.55457883 -85.91601562 179.06152344 C-92.46541406 189.52785015 -99.00850027 199.9976381 -105.5 210.5 C-111.99427777 221.00685639 -118.54042507 231.48094727 -125.09277344 241.95166016 C-128.23041563 246.96658596 -131.36507133 251.98337765 -134.5 257 C-135.74998537 259.00000915 -136.99998537 261.00000914 -138.25 263 C-138.86875 263.99 -139.4875 264.98 -140.125 266 C-145.75 275 -145.75 275 -147.62475586 277.99951172 C-148.87568669 280.00106619 -150.12650035 282.00269389 -151.37719727 284.00439453 C-154.48700269 288.98121596 -157.59878331 293.95677968 -160.71484375 298.9296875 C-167.24985065 309.36391232 -173.74595628 319.82027818 -180.1875 330.3125 C-185.23674649 338.53580022 -190.32421386 346.7314091 -195.49291992 354.88012695 C-198.87124433 360.20698096 -202.22960918 365.54563739 -205.55810547 370.90380859 C-206.84954768 372.96290718 -208.15978907 375.01033745 -209.48876953 377.04541016 C-212.59696165 381.84799058 -215.26583988 386.35933597 -217.21484375 391.75 C-219.47854297 397.4256889 -221.41812198 402.02293359 -227 405 C-236.98114569 407.44233944 -247.91425257 406.62710794 -258.0859375 406.05859375 C-258.89191879 406.01874863 -259.69790009 405.9789035 -260.52830505 405.93785095 C-265.68840122 405.53061223 -268.89787431 404.38879731 -273 401 C-275.22831453 397.6575282 -275.35114205 396.30682655 -275.4375 392.375 C-275.47746094 391.39273437 -275.51742188 390.41046875 -275.55859375 389.3984375 C-274.22323143 381.27420519 -268.41489074 374.5526735 -263.5625 368.125 C-262.31623471 366.45455505 -261.07014603 364.78397833 -259.82421875 363.11328125 C-259.1904834 362.26717285 -258.55674805 361.42106445 -257.90380859 360.54931641 C-254.87062889 356.48770285 -251.87531593 352.39840985 -248.875 348.3125 C-244.12991014 341.8652742 -239.34621812 335.44861975 -234.53417969 329.05126953 C-228.89812959 321.54955664 -223.3442154 313.98764141 -217.78662109 306.42773438 C-216.01285994 304.01747461 -214.23556356 301.60986576 -212.45703125 299.203125 C-206.71995795 291.43662161 -201.01296892 283.65131055 -195.375 275.8125 C-190.83004123 269.49363171 -186.20318727 263.24459167 -181.51464844 257.03173828 C-177.26331594 251.38417576 -173.12242677 245.66113915 -168.99609375 239.921875 C-165.03592615 234.41902928 -161.02997489 228.95189273 -157 223.5 C-152.46240367 217.3599045 -147.96020765 211.19654153 -143.5 205 C-139.03979047 198.80345586 -134.53740365 192.64023977 -130 186.5 C-123.80974505 178.12062325 -117.69525542 169.68892429 -111.60888672 161.23388672 C-108.90987872 157.48640216 -106.20461116 153.74344155 -103.5 150 C-102.41663696 148.50002146 -101.33330362 147.00002146 -100.25 145.5 C-93.75 136.5 -93.75 136.5 -92.12475586 134.24975586 C-91.04211746 132.7506555 -89.9595978 131.25146938 -88.87719727 129.75219727 C-86.15920177 125.98771832 -83.43911932 122.22478096 -80.71484375 118.46484375 C-73.90382203 109.05953314 -67.16372243 99.60777607 -60.48388672 90.10888672 C-57.99351204 86.56958819 -55.496338 83.03509356 -53 79.5 C-51.99478512 78.07552546 -50.98957677 76.6510463 -49.984375 75.2265625 C-48.03859791 72.4698341 -46.09059487 69.71470153 -44.140625 66.9609375 C-41.08633706 62.6458287 -38.0406387 58.32473663 -35 54 C-34.37013184 53.10442383 -33.74026367 52.20884766 -33.09130859 51.28613281 C-21.3596854 34.58184629 -9.88600669 17.87412672 0 0 Z " fill="#FEB804" transform="translate(787,25)"/>
<path d="M0 0 C2.58206639 -0.01199808 5.16411544 -0.02877169 7.74611783 -0.05055356 C11.30981372 -0.07845954 14.87299148 -0.08652609 18.43678391 -0.08868134 C19.49325666 -0.10009828 20.54972942 -0.11151523 21.6382165 -0.12327814 C30.61599856 -0.08791283 30.61599856 -0.08791283 34.5505687 3.24919403 C38.78722294 8.80067199 38.33361872 15.60804338 37.5505687 22.24919403 C36.32537684 26.83057385 34.71897557 31.03340765 32.5505687 35.24919403 C32.17285388 35.99412864 31.79513905 36.73906326 31.40597832 37.50657165 C27.82520863 43.75963184 27.82520863 43.75963184 24.4981662 45.03747833 C21.98990662 45.28796235 19.62599706 45.24783506 17.10867417 45.11052215 C16.15506627 45.09639785 15.20145836 45.08227355 14.21895325 45.06772125 C12.11589261 45.03144057 10.01311608 44.97435165 7.91107666 44.89944732 C4.44272492 44.77690991 0.97690094 44.70874871 -2.49316299 44.65458953 C-6.31577768 44.59477239 -10.13805558 44.53179483 -13.96034706 44.45374572 C-28.84899791 44.1507234 -43.73175428 44.29280286 -58.62176979 44.4257611 C-66.08196327 44.49170921 -73.54228974 44.53883504 -81.00260568 44.58850324 C-84.42119393 44.61148861 -87.8397749 44.63547406 -91.25835651 44.65942395 C-121.77756647 44.87281646 -152.29704895 45.04851526 -182.81650436 45.22267425 C-185.82138326 45.23983153 -188.82626096 45.25717717 -191.83113754 45.27473724 C-207.38381585 45.36557916 -222.93638016 45.4432837 -238.48928726 45.48137176 C-242.47417319 45.49160246 -246.45892711 45.50890322 -250.44375503 45.53264129 C-254.98942645 45.55947632 -259.53490244 45.57233335 -264.08065116 45.57326782 C-265.69031651 45.57591175 -267.29998359 45.58353119 -268.90959632 45.59681213 C-283.73625095 45.71359203 -283.73625095 45.71359203 -290.4494313 42.24919403 C-294.61672071 38.08190462 -296.25194316 34.2569901 -296.8244313 28.43669403 C-296.53374132 20.26677574 -291.5846469 14.88994392 -286.35177505 9.03435028 C-279.73336781 4.9635399 -269.89058932 6.0789245 -262.25373733 5.90115631 C-261.2888747 5.87580057 -260.32401207 5.85044483 -259.32991117 5.82432073 C-256.1275602 5.74106893 -252.92510585 5.66295598 -249.72262466 5.58488739 C-247.41119045 5.52591694 -245.09976383 5.46664885 -242.78834426 5.40710723 C-236.51679211 5.24659468 -230.24513158 5.09078825 -223.97343028 4.93622553 C-219.36058751 4.82227176 -214.74778379 4.70679442 -210.13498254 4.5911742 C-197.65711155 4.27845446 -185.17916308 3.96904007 -172.70112961 3.66287368 C-171.99376008 3.64551711 -171.28639056 3.62816054 -170.5575856 3.61027801 C-169.84931011 3.59289982 -169.14103463 3.57552164 -168.41129626 3.55761684 C-157.06347392 3.27900651 -145.71584278 2.99332835 -134.36828332 2.70422607 C-122.61340147 2.40483246 -110.85838879 2.11109656 -99.10323137 1.82272142 C-92.54651969 1.66176802 -85.98987501 1.49871111 -79.43336189 1.3298043 C-52.95849442 0.65023491 -26.48384066 0.11034982 0 0 Z " fill="#FEB804" transform="translate(435.44943130016327,538.7508059740067)"/>
<path d="M0 0 C5.54063692 5.2565017 7.54035153 8.86808689 7.75 16.4375 C7.49249812 32.66011842 -5.97496924 45.95028331 -15.34472656 58.16918945 C-19.81750931 64.00300574 -24.22100934 69.8804388 -28.5625 75.8125 C-33.48786924 82.53767217 -38.4960548 89.19298422 -43.5625 95.8125 C-49.30621634 103.3181476 -54.96455903 110.87937643 -60.5546875 118.5 C-64.67627792 124.11778421 -68.84268779 129.6996286 -73.03320312 135.26611328 C-76.82997795 140.31722446 -80.57500082 145.40493385 -84.3125 150.5 C-89.98568222 158.22813489 -95.77389146 165.86252954 -101.60058594 173.4753418 C-105.98254356 179.21067538 -110.2976215 184.98967501 -114.5625 190.8125 C-120.1491242 198.43990017 -125.85526338 205.96894565 -131.6015625 213.4765625 C-135.98314326 219.21152727 -140.29792958 224.99009563 -144.5625 230.8125 C-150.14539528 238.43480908 -155.84670005 245.95963931 -161.59057617 253.46118164 C-166.08572043 259.3430504 -170.50224668 265.27672233 -174.875 271.25 C-179.05033952 276.93754675 -183.24532905 282.60651147 -187.5625 288.1875 C-187.98313721 288.74042725 -188.40377441 289.29335449 -188.8371582 289.86303711 C-192.10166858 294.03684924 -195.76959437 297.91604719 -200.5625 300.3125 C-202.62109375 300.515625 -202.62109375 300.515625 -205 300.5625 C-205.78246094 300.58828125 -206.56492187 300.6140625 -207.37109375 300.640625 C-209.5625 300.3125 -209.5625 300.3125 -211.30078125 299.12109375 C-213.57763076 295.85737448 -213.33095739 292.74147681 -213.21484375 288.86328125 C-211.86768886 281.53056392 -207.54617673 275.48557514 -203.5625 269.3125 C-203.07523437 268.54905273 -202.58796875 267.78560547 -202.0859375 266.99902344 C-199.42172819 262.83363465 -196.72416114 258.69147923 -194.00390625 254.5625 C-190.54660303 249.30841856 -187.17517416 244.0024626 -183.8125 238.6875 C-176.53872299 227.21629216 -169.09902087 215.85587352 -161.64990234 204.49804688 C-158.40460945 199.54546422 -155.17073593 194.58545901 -151.9375 189.625 C-151.32076416 188.67923096 -150.70402832 187.73346191 -150.06860352 186.7590332 C-147.07786844 182.17250572 -144.08863124 177.58500984 -141.1015625 172.99609375 C-132.0855351 159.15041065 -123.01714869 145.33953758 -113.93948364 131.53422546 C-113.44382904 130.78043106 -112.94817444 130.02663666 -112.4375 129.25 C-111.94128143 128.49535965 -111.44506287 127.7407193 -110.93380737 126.96321106 C-107.76540239 122.14408494 -104.59998044 117.3230159 -101.4375 112.5 C-101.02470291 111.87046921 -100.61190582 111.24093842 -100.18659973 110.59233093 C-99.77415512 109.96333389 -99.36171051 109.33433685 -98.93676758 108.6862793 C-89.39349611 94.13250469 -79.82637437 79.59451333 -70.25 65.0625 C-69.62567078 64.114888 -69.00134155 63.167276 -68.35809326 62.19094849 C-50.81812168 35.57062088 -50.81812168 35.57062088 -41.9375 22.5 C-41.40382813 21.70658203 -40.87015625 20.91316406 -40.3203125 20.09570312 C-35.7214562 13.33694708 -31.23405424 7.05273959 -24.375 2.4375 C-23.11623047 1.57511719 -23.11623047 1.57511719 -21.83203125 0.6953125 C-15.52217923 -3.1492445 -6.55702504 -3.10595923 0 0 Z " fill="#FFE466" transform="translate(545.5625,548.6875)"/>
</svg>
